<svg xmlns="http://www.w3.org/2000/svg" xmlns:xlink="http://www.w3.org/1999/xlink" id="Layer_1" data-name="Layer 1" viewBox="0 0 870.5 833.93"><defs><style>.cls-1{opacity:0.7;fill:url(#Analogous_2);}.cls-2{fill:#ffd640;}.cls-3{fill:url(#Cast_Iron);}</style><linearGradient id="Analogous_2" x1="23.79" y1="1073.91" x2="672.61" y2="425.08" gradientUnits="userSpaceOnUse"><stop offset="0" stop-color="#00a995"/><stop offset="0.5" stop-color="#006eb9"/><stop offset="1" stop-color="#00aa4f"/></linearGradient><linearGradient id="Cast_Iron" x1="147.63" y1="432.9" x2="522.47" y2="432.9" gradientUnits="userSpaceOnUse"><stop offset="0.01" stop-color="#85878d"/><stop offset="0.53" stop-color="#979899"/><stop offset="1" stop-color="#5d5c62"/></linearGradient></defs><path class="cls-1" d="M870.5,955.31v74.1a50,50,0,0,1-50,50H50a50,50,0,0,1-50-50v-74.1a50,50,0,0,1,50-50H348.2V419.58H50a50,50,0,0,1-50-50v-74.1a50,50,0,0,1,50-50H472.3a50,50,0,0,1,50,50V905.31H820.5A50,50,0,0,1,870.5,955.31Z" transform="translate(0 -245.48)"/><path class="cls-2" d="M431.75,269.69" transform="translate(0 -245.48)"/></svg>
